<?xml version="1.0" encoding="UTF-8" standalone="no"?>
<!-- Created with Inkscape (http://www.inkscape.org/) -->

<svg
   xmlns:dc="http://purl.org/dc/elements/1.1/"
   xmlns:cc="http://creativecommons.org/ns#"
   xmlns:rdf="http://www.w3.org/1999/02/22-rdf-syntax-ns#"
   xmlns:svg="http://www.w3.org/2000/svg"
   xmlns="http://www.w3.org/2000/svg"
   xmlns:sodipodi="http://sodipodi.sourceforge.net/DTD/sodipodi-0.dtd"
   xmlns:inkscape="http://www.inkscape.org/namespaces/inkscape"
   id="svg4190"
   version="1.1"
   inkscape:version="0.91 r13725"
   width="512"
   height="512"
   viewBox="0 0 512 512"
   sodipodi:docname="appicon.svg"
   inkscape:export-filename="/home/raphael/proj/c3nav/c3nav-android/appicon.png"
   inkscape:export-xdpi="90"
   inkscape:export-ydpi="90">
  <metadata
     id="metadata4196">
    <rdf:RDF>
      <cc:Work
         rdf:about="">
        <dc:format>image/svg+xml</dc:format>
        <dc:type
           rdf:resource="http://purl.org/dc/dcmitype/StillImage" />
        <dc:title></dc:title>
      </cc:Work>
    </rdf:RDF>
  </metadata>
  <defs
     id="defs4194" />
  <sodipodi:namedview
     pagecolor="#ffffff"
     bordercolor="#666666"
     borderopacity="1"
     objecttolerance="10"
     gridtolerance="10"
     guidetolerance="10"
     inkscape:pageopacity="0"
     inkscape:pageshadow="2"
     inkscape:window-width="1916"
     inkscape:window-height="1005"
     id="namedview4192"
     showgrid="false"
     inkscape:zoom="1.3031203"
     inkscape:cx="177.31161"
     inkscape:cy="288.2935"
     inkscape:window-x="1920"
     inkscape:window-y="54"
     inkscape:window-maximized="0"
     inkscape:current-layer="svg4190"
     fit-margin-top="0"
     fit-margin-left="0"
     fit-margin-right="0"
     fit-margin-bottom="0" />
  <g
     id="g4816"
     transform="matrix(1.1216081,0,0,1.1216081,-31.131674,-31.131674)">
    <ellipse
       rx="213"
       ry="211.3965"
       cy="256"
       cx="256"
       id="path4814"
       style="color:#000000;display:inline;overflow:visible;visibility:visible;opacity:1;fill:#ffffff;fill-opacity:1;fill-rule:nonzero;stroke:none;stroke-width:11;stroke-linecap:round;stroke-linejoin:round;stroke-miterlimit:4;stroke-dasharray:none;stroke-dashoffset:0;stroke-opacity:1;marker:none;enable-background:accumulate" />
    <path
       inkscape:connector-curvature="0"
       id="path4200"
       d="m 253.68951,44.621863 c -67.525,0.30902 -134.03576,34.940799 -172.479067,90.552897 -32.353309,46.05146 -45.438082,105.3893 -34.315439,160.6687 6.30497,32.5141 20.302348,63.5573 40.803774,89.59345 10.673978,-6.95804 22.558182,-11.59767 34.725012,-15.08811 18.38819,-4.28158 37.74963,-2.58106 55.99805,1.36927 7.38913,2.20196 14.76961,4.52387 22.45253,5.44907 10.99221,2.06789 22.18237,6.04548 33.4949,4.39231 4.28027,-0.79031 -1.02534,-2.08239 -2.78734,-2.14597 -12.33326,-2.16037 -23.47754,-8.26268 -34.73207,-13.41541 -10.54611,-5.70448 -20.79375,-12.16199 -28.93215,-21.07448 -7.83414,-7.45113 -14.92327,-15.73317 -19.93241,-25.38462 -8.30444,-13.35831 -14.7898,-27.81866 -18.02815,-43.30495 -0.53157,-2.43014 -1.41804,-4.80439 -3.96472,-5.64701 -8.96593,-5.27518 -18.92093,-8.81531 -27.555769,-14.57742 -1.779779,-2.12285 -0.162002,-5.19442 2.444459,-5.47539 10.61547,-4.70348 20.44585,-11.00047 29.76033,-17.89287 2.66572,-24.17786 16.41535,-45.52586 31.17767,-64.34759 9.76711,-12.36026 21.8975,-22.98295 36.38401,-29.39278 10.53149,-5.79997 21.92287,-9.3047 33.61536,-11.76671 3.43263,-0.16979 5.8906,-1.61771 6.84584,-5.03697 4.57537,-8.35389 9.08101,-16.81491 14.44167,-24.661258 3.01694,-1.59075 5.27828,1.88346 6.17972,4.291368 5.03339,8.82362 9.73001,17.83431 14.87517,26.59459 13.76062,1.42998 27.22437,5.41857 39.88808,10.90743 16.46716,8.24811 30.86419,20.59506 41.33306,35.78671 11.36824,15.59301 18.08272,33.99944 23.02292,52.43568 0.72675,2.19085 0.21481,5.12593 1.41186,6.83658 10.55037,4.82547 20.07563,12.07796 31.47736,14.88362 1.599,-1.62351 -0.60703,-2.84213 -2.06202,-2.99939 -5.7613,-2.12497 -8.60189,-10.36969 -3.94367,-14.92896 5.13074,-5.82248 16.93311,-5.02323 19.31421,3.06839 0.52197,1.93252 0.009,3.92412 -0.40512,5.8194 13.99124,-5.24951 28.21392,-9.81816 42.73076,-13.37554 C 458.0661,160.90863 415.77378,100.62446 356.8956,69.841542 325.31359,53.019993 289.48771,44.146103 253.68951,44.621863 Z m 0.27796,61.626047 c -4.92111,8.08222 -9.22035,16.62598 -13.9699,24.72651 -3.12833,1.37168 -6.76998,0.73623 -9.89505,2.20953 -11.28323,2.43259 -22.44838,5.9758 -32.31125,12.09575 -13.71493,7.16948 -25.67389,17.56674 -34.58821,30.22531 -12.93734,16.87644 -24.52398,35.9967 -27.23702,57.4744 0.37058,4.44379 -5.12742,4.92606 -7.46634,7.51001 -6.69434,5.22515 -14.03557,9.56753 -21.63852,13.32804 8.74797,4.47623 17.92906,8.25127 25.98029,13.96596 3.4514,7.10694 3.05189,15.48095 6.44292,22.74101 4.92258,13.34006 12.4833,25.53688 20.26478,37.35232 6.0212,7.30891 12.87395,13.93236 19.78634,20.36788 14.15244,10.83933 30.51616,18.45053 47.26878,24.32929 -1.38388,-3.31599 -0.96333,-7.57613 2.19903,-9.72856 -16.79764,-5.22327 -32.7832,-13.30391 -46.33239,-24.4663 -9.16647,-6.41957 -16.24296,-15.01363 -22.1624,-24.32859 -7.41598,-10.84392 -12.21212,-23.38452 -14.0326,-36.36651 -4.47283,-25.75035 -3.58778,-53.66936 8.57061,-77.31346 7.76682,-14.16092 19.24656,-25.89595 31.20169,-36.57024 10.34869,-8.24099 22.2631,-14.30744 34.57107,-19.04026 13.49822,-4.13964 27.69925,-3.42081 41.6698,-3.53756 15.95117,0.70354 32.24839,4.27477 46.25626,12.18995 11.306,7.01862 20.86064,16.4556 30.27842,25.75143 8.3945,9.51187 15.93274,20.17522 19.96324,32.33868 7.7448,19.13814 11.56549,40.1659 6.78587,60.43256 -4.65794,19.49699 -12.50597,38.46055 -24.81082,54.35242 -6.31411,7.50631 -13.06619,14.87267 -20.99523,20.64621 -8.52543,5.6504 -17.95572,9.77252 -27.62659,13.18959 -14.20475,4.88787 -29.3712,6.44696 -44.28787,5.44745 -2.95994,-0.11717 -5.86578,1.30761 -8.72417,-0.19023 -1.46589,-0.48705 -3.01661,-0.51123 -4.54295,-0.40117 2.39923,3.03575 3.34852,6.82848 5.03677,10.24111 3.19464,-3.68538 10.75799,-1.5188 10.23914,3.7071 -0.13154,2.96797 -2.57594,5.17734 -5.05846,6.43445 3.74464,6.33531 6.84542,13.01753 10.29237,19.51331 5.40348,-10.48166 9.97669,-21.49015 16.57305,-31.29304 3.51138,-2.34237 8.03706,-1.57934 11.89309,-3.0132 9.96493,-1.88235 19.17423,-6.33081 28.40404,-10.35423 16.98008,-8.06539 31.56132,-20.88355 41.89345,-36.57576 8.4702,-12.27616 13.00562,-26.68653 18.00768,-40.58861 1.52995,-4.50854 1.44099,-9.53099 3.21427,-13.88218 2.37371,-2.19628 5.69412,-2.81435 8.18534,-4.95785 6.54348,-4.12947 13.54563,-7.64621 20.61791,-10.86116 -9.62105,-3.19723 -17.80274,-9.28743 -26.83881,-13.86542 -3.73881,-1.82894 -3.34633,-6.21193 -3.66373,-9.72265 -1.61338,-7.34803 -4.23714,-14.48373 -6.83129,-21.54807 -5.14399,-13.58497 -12.20974,-26.48983 -21.7427,-37.50547 -11.58118,-13.58427 -26.57604,-24.72173 -43.68262,-30.20415 -8.19691,-2.93445 -16.62516,-5.27415 -25.28442,-6.39589 -6.77349,-0.58737 -9.07371,-7.80811 -12.03467,-12.803 -2.94557,-5.56159 -5.95771,-11.0873 -8.93533,-16.63181 -0.30095,0.52503 -0.60191,1.05007 -0.90287,1.5751 z m 4.32611,40.11479 c -15.84119,-0.056 -32.86999,-0.40963 -46.92833,8.04744 -12.8796,5.9435 -24.76128,14.18966 -34.1141,24.9185 -11.41411,11.73136 -21.38727,25.67991 -24.83774,41.95443 -5.86283,22.99037 -4.05474,47.43398 2.18869,70.13868 3.59966,11.20964 10.54718,20.96477 17.76442,30.11687 7.22956,8.91242 16.98371,15.18865 26.3507,21.59888 11.15268,7.29396 23.77697,11.94752 36.43661,15.87494 6.67995,2.04221 13.71219,2.10083 20.59081,1.33128 8.90612,0.2513 17.76765,-0.88868 26.37744,-3.15231 14.03215,-3.56602 27.84551,-9.19553 39.29576,-18.18152 6.18107,-5.96197 12.04924,-12.3169 17.35385,-19.06139 12.36082,-17.37744 20.27768,-37.87593 23.33657,-58.94846 1.97304,-17.37736 -2.85943,-34.64631 -9.33922,-50.60626 -3.56938,-9.93363 -10.27328,-18.31629 -16.99097,-26.29866 -6.76559,-7.46017 -14.53289,-13.92518 -22.18546,-20.43885 -6.74793,-5.50081 -14.54337,-9.5954 -22.94423,-11.90149 -10.44323,-3.33956 -21.35109,-5.54371 -32.3548,-5.39208 z m 11.83789,5.09295 c 3.26851,-0.11009 7.22581,2.1258 6.47374,5.8982 0.06,13.33781 0.34711,26.76281 -0.26599,40.04584 -2.41114,3.01696 -6.71842,0.85128 -9.9801,1.16716 -3.36061,-0.0172 -6.31346,-2.01923 -7.55844,-5.13393 -2.96803,-4.68143 -4.71652,-10.01112 -7.71629,-14.67323 -0.6783,6.39585 1.41586,13.23828 -0.93737,19.33983 -3.07941,1.84707 -6.83637,0.25109 -10.20464,0.92751 -3.67669,-0.21684 -2.51534,-4.65335 -2.76382,-7.0633 0.2927,-10.89705 -0.89643,-21.77125 -0.59042,-32.62962 0.15881,-2.71913 0.33732,-6.57118 3.85397,-6.87899 3.29216,-0.23019 6.5605,-0.15137 9.86557,0.0197 3.71438,0.47336 3.77928,5.01251 5.79081,7.4418 1.9537,3.47068 3.98709,6.89577 5.9909,10.33771 0.52488,-5.81493 -0.90319,-11.98729 1.25574,-17.48677 1.83856,-1.57116 4.55504,-1.12716 6.78634,-1.31193 z m -1.62635,5.78786 c -2.38206,0.11156 -0.97871,3.42331 -1.35629,5.10872 -0.0653,6.66436 0.63552,13.57478 -1.08522,20.05247 -2.22607,1.96557 -4.77247,-1.14449 -5.27432,-3.26552 -3.45661,-7.05885 -7.74584,-13.66965 -11.2593,-20.69907 -2.61312,-0.0491 -5.22304,-0.12696 -7.80257,-0.32133 -0.17007,11.66467 0.61346,23.29966 0.63872,34.95875 2.14303,0.82042 4.71642,-0.96391 3.86481,-3.34142 -0.0692,-7.82411 -1.56,-15.86051 0.23558,-23.4688 1.93313,-2.02673 5.2491,-0.29621 5.60461,2.21006 4.47209,7.7064 7.58922,16.12373 12.25079,23.72686 2.29691,0.4017 4.63473,0.31862 6.92729,0.43665 0.5645,-11.63132 0.28968,-23.27929 0.25529,-34.91834 -1.02862,0.006 -1.97871,-0.47393 -2.99939,-0.47903 z m 41.80521,35.68223 c 2.89033,0.0842 3.51584,4.2224 1.5544,5.85094 -6.00555,23.01227 -18.11941,43.70078 -26.98172,65.62491 -2.09991,2.95333 -1.39989,7.29487 -4.25613,9.62999 -4.34658,2.47467 -9.29469,3.71565 -13.78709,5.92766 -14.94297,6.53806 -29.44275,14.05274 -44.42952,20.48927 -7.53397,3.59699 -15.21113,7.22871 -23.12579,9.73645 -3.70165,0.026 -2.7138,-4.94256 -1.54553,-7.10274 4.95182,-9.27833 8.62338,-19.18526 13.3978,-28.55275 5.42486,-11.82392 11.72682,-23.25843 16.69251,-35.28713 1.9567,-4.74813 3.46091,-11.04105 9.06247,-12.69047 9.3551,-3.33928 17.92746,-8.45224 27.06999,-12.30634 15.49186,-6.69192 30.25772,-15.00904 45.91787,-21.28726 0.14319,-0.0115 0.28661,-0.0353 0.43074,-0.0325 z m -6.69368,9.02479 c -18.21973,8.53845 -36.354,17.26971 -54.65838,25.62719 -4.29255,2.04414 -8.6037,3.91739 -13.16655,5.30411 -8.13458,22.3416 -20.28219,42.95786 -29.35628,64.92526 -0.83239,2.13645 -3.92155,6.45923 0.25044,3.64582 17.01826,-7.68358 33.94911,-15.5448 50.76079,-23.66555 6.37473,-2.93103 12.81402,-5.74355 19.27597,-8.47221 6.21655,-14.91411 13.00842,-29.57825 19.79558,-44.23226 3.37379,-7.90868 6.47392,-15.93584 9.22649,-24.08254 -0.70936,0.31672 -1.41871,0.63346 -2.12806,0.95018 z m -48.51862,28.96095 c 6.52691,-0.1721 13.87175,1.93602 17.14229,8.07192 7.84064,12.36608 0.85017,32.06689 -14.00982,34.93778 -10.39354,1.94506 -20.74585,-5.86755 -22.89022,-16.00037 -1.10393,-5.55287 -2.02849,-11.8248 0.49974,-17.16544 3.66975,-6.67713 11.89668,-10.04489 19.25801,-9.84389 z m 211.41731,1.88953 c -15.2786,3.79418 -30.24409,8.87505 -45.04216,14.14929 -2.61075,1.96597 -4.17658,5.0625 -7.28482,6.44224 -11.13452,7.43366 -24.00828,12.11208 -34.66725,20.23097 -1.52594,2.71433 -0.63502,6.10098 -1.93895,8.95328 -3.15382,11.01346 -7.57141,21.64608 -12.2064,32.10677 -10.00604,20.77354 -27.44958,37.44049 -47.42846,48.66547 -8.75769,4.43178 -18.04614,8.20722 -27.31094,11.3421 -5.22608,1.52226 -10.6327,2.1058 -15.91265,3.36114 -5.81253,10.88057 -11.46161,21.87139 -16.76723,32.99431 -1.46878,2.52795 -5.05555,1.58614 -5.95542,-0.91569 -4.44839,-7.25913 -7.50413,-15.47538 -12.18485,-22.51565 -2.68704,-0.93961 -5.51866,1.04064 -8.18106,0.84669 -13.74279,1.31636 -26.80507,-4.6019 -40.33457,-6.15027 -9.32561,-2.12893 -18.42124,-6.24362 -28.18005,-6.67254 -18.31911,-2.86292 -37.77054,-2.12928 -54.79901,5.82882 -5.93671,2.35804 -11.831914,4.9394 -17.168955,8.48728 19.527165,23.42991 43.975455,42.7412 71.493165,55.93982 41.4799,20.2373 89.58124,26.55869 134.83521,17.38784 48.79385,-9.61947 94.16494,-36.53153 125.1045,-75.59801 32.33467,-40.24073 49.39003,-92.60857 45.98699,-144.19723 -0.21351,-3.6664 -0.53254,-7.32556 -0.9216,-10.9774 -0.3785,0.0969 -0.757,0.19385 -1.13549,0.29077 z m -53.788,0.51058 c -3.54472,-0.094 -6.17495,5.52706 -2.40898,7.25945 2.37545,1.41104 7.16571,2.52883 8.05686,-1.0931 1.13718,-2.35519 0.3798,-6.18715 -2.82394,-6.09144 -0.93784,-0.10231 -1.88271,-0.065 -2.82394,-0.0749 z m -160.61194,3.99985 c -5.88689,0.15542 -12.91589,4.22293 -12.67768,10.80688 -0.28721,7.17358 2.63334,15.13129 9.51664,18.31473 6.33929,3.29059 15.09702,0.91538 18.29994,-5.64493 3.97121,-6.5647 4.07529,-16.77426 -2.86928,-21.42649 -3.56584,-2.54885 -8.15451,-1.9741 -12.26962,-2.05019 z"
       style="fill:#000000" />
  </g>
</svg>
