<?xml version="1.0" encoding="UTF-8" standalone="no"?>
<svg
   xmlns:dc="http://purl.org/dc/elements/1.1/"
   xmlns:cc="http://creativecommons.org/ns#"
   xmlns:rdf="http://www.w3.org/1999/02/22-rdf-syntax-ns#"
   xmlns:svg="http://www.w3.org/2000/svg"
   xmlns="http://www.w3.org/2000/svg"
   xmlns:sodipodi="http://sodipodi.sourceforge.net/DTD/sodipodi-0.dtd"
   xmlns:inkscape="http://www.inkscape.org/namespaces/inkscape"
   viewBox="0 0 477.80505 477.80506"
   height="477.80505"
   width="477.80505"
   version="1.1"
   id="svg4190"
   inkscape:version="0.91 r13725"
   sodipodi:docname="logo.svg">
  <metadata
     id="metadata4144">
    <rdf:RDF>
      <cc:Work
         rdf:about="">
        <dc:format>image/svg+xml</dc:format>
        <dc:type
           rdf:resource="http://purl.org/dc/dcmitype/StillImage" />
        <dc:title></dc:title>
      </cc:Work>
    </rdf:RDF>
  </metadata>
  <defs
     id="defs4142" />
  <sodipodi:namedview
     pagecolor="#ffffff"
     bordercolor="#666666"
     borderopacity="1"
     objecttolerance="10"
     gridtolerance="10"
     guidetolerance="10"
     inkscape:pageopacity="0"
     inkscape:pageshadow="2"
     inkscape:window-width="1916"
     inkscape:window-height="1023"
     id="namedview4140"
     showgrid="false"
     inkscape:zoom="0.61712099"
     inkscape:cx="456.80343"
     inkscape:cy="410.85965"
     inkscape:window-x="1920"
     inkscape:window-y="36"
     inkscape:window-maximized="0"
     inkscape:current-layer="svg4190" />
  <path
     style="color:#000000;display:inline;overflow:visible;visibility:visible;opacity:1;fill:#ffffff;fill-opacity:1;fill-rule:nonzero;stroke:none;stroke-width:1;stroke-linecap:round;stroke-linejoin:round;stroke-miterlimit:4;stroke-dasharray:none;stroke-dashoffset:0;stroke-opacity:1;marker:none;enable-background:accumulate"
     d="m 476.91173,218.13437 c 0.61433,-2.68667 1.31483,-5.5091 0.57505,-8.24802 -3.37468,-11.46805 -20.10326,-12.60065 -27.37494,-4.34859 -6.60198,6.46175 -2.57535,18.14639 5.59,21.15807 2.06213,0.22287 5.18832,1.95137 2.9221,4.25234 -16.1594,-3.9764 -29.65858,-14.25736 -44.61137,-21.09637 -1.69655,-2.42446 -0.97153,-6.58428 -2.00154,-9.68933 -7.00162,-26.12922 -16.51736,-52.21402 -32.62928,-74.31362 C 364.54447,104.31809 344.14006,86.819045 320.80156,75.12921 302.8536,67.349982 283.77238,61.6964 264.2698,59.669733 256.97769,47.253998 250.31947,34.481637 243.18577,21.976137 c -1.27758,-3.412671 -4.48058,-8.335658 -8.75642,-6.081125 -7.59754,11.120437 -13.98495,23.1119 -20.46951,34.95166 -1.35384,4.846037 -4.83667,6.899252 -9.70166,7.139894 -16.57148,3.489346 -32.71604,8.456043 -47.64206,16.676195 -20.53138,9.084499 -37.72348,24.139304 -51.56616,41.657189 -20.922277,26.67559 -40.408804,56.93292 -44.186873,91.1996 -13.201181,9.76843 -27.135354,18.69247 -42.180407,25.35859 -3.694064,0.39822 -5.98502,4.7507 -3.462588,7.75935 12.237947,8.1665 26.346257,13.18315 39.053457,20.65954 3.609351,1.19421 4.866227,4.55951 5.619616,8.0037 4.589635,21.94834 13.781402,42.444 25.551087,61.37641 7.099328,13.67876 17.145458,25.41556 28.248598,35.97587 11.53435,12.63145 26.0589,21.78279 41.00564,29.8676 15.95077,7.30285 31.74442,15.95156 49.22404,19.0134 2.49725,0.0901 10.01756,1.92294 3.95125,3.04303 -16.03298,2.34299 -31.89277,-3.29597 -47.47176,-6.22674 -10.88882,-1.31126 -21.34982,-4.60155 -31.82226,-7.72234 -25.86303,-5.5987 -53.301987,-8.00803 -79.363122,-1.93984 C 31.97288,407.63503 1.9184496e-6,424.07078 1.9184496e-6,424.07078 L 4.8964921,430.47522 c 0,0 15.9179559,-8.68698 24.3319029,-12.02898 24.13404,-11.27882 51.701924,-12.3179 77.665145,-8.26036 13.83092,0.6079 26.72251,6.44004 39.93947,9.45733 19.17503,2.19446 37.68872,10.58258 57.16603,8.71694 3.77336,0.27488 7.78633,-2.53361 11.59461,-1.20191 6.63387,9.978 10.96392,21.6229 17.26852,31.91109 1.27538,3.54578 6.35886,4.88097 8.44052,1.29817 7.51953,-15.76425 15.52631,-31.34022 23.76427,-46.76099 7.48315,-1.77916 15.14569,-2.60575 22.55249,-4.76322 13.13077,-4.44299 26.29588,-9.79543 38.70793,-16.07648 28.31558,-15.9089 53.03683,-39.53106 67.21815,-68.97289 6.56905,-14.82567 12.83077,-29.8932 17.30061,-45.50232 1.84803,-4.04249 0.58419,-8.84345 2.74687,-12.6904 15.10669,-11.5067 33.35205,-18.13756 49.13272,-28.67309 4.40524,-1.95548 7.69552,-5.36243 10.32608,-9.12909 3.27191,-4.68501 3.08668,-6.28295 3.85992,-9.66465 z M 236.92942,26.151975 c 4.22011,7.858098 8.48857,15.689455 12.66325,23.571762 4.1965,7.079142 7.45638,17.312187 17.05628,18.144654 12.27256,1.589811 24.21791,4.906005 35.83519,9.064926 24.24474,7.770088 45.49579,23.554603 61.90951,42.807263 13.51083,15.6122 23.52486,33.9019 30.81531,53.15556 3.67662,10.01211 7.39532,20.12718 9.68192,30.54136 0.44985,4.97565 -0.10627,11.18668 5.19264,13.77879 12.80661,6.48827 24.40344,15.11876 38.03912,19.65012 -10.02337,4.55647 -19.94707,9.54271 -29.22099,15.39531 -3.53074,3.03794 -8.23781,3.91363 -11.60201,7.02637 -2.51322,6.16684 -2.38756,13.28497 -4.55591,19.67481 -7.0893,19.70308 -13.51687,40.12517 -25.52147,57.52389 -14.64347,22.24019 -35.30944,40.40677 -59.37489,51.83764 -13.08119,5.70229 -26.13232,12.00685 -40.25537,14.67466 -5.46506,2.03218 -11.87977,0.95231 -16.85636,4.27209 -9.34886,13.8934 -15.82962,29.49435 -23.48785,44.34976 -4.88528,-9.20631 -9.2811,-18.6774 -14.58828,-27.65629 3.51841,-1.78166 6.98307,-4.91278 7.1695,-9.11921 0.73534,-7.40654 -9.98408,-10.47508 -14.51177,-5.25188 -2.39271,-4.83664 -3.73705,-10.21422 -7.13743,-14.51672 2.16325,-0.15598 4.36143,-0.12017 6.43898,0.57011 4.05112,2.12286 8.16958,0.10299 12.36463,0.26901 21.14104,1.41659 42.63386,-0.79241 62.7659,-7.71987 13.7063,-4.84293 27.07176,-10.68685 39.15464,-18.69502 11.23764,-8.18269 20.80771,-18.62196 29.75655,-29.26047 17.43936,-22.52316 28.56233,-49.39827 35.16391,-77.03088 6.77404,-28.72344 1.35876,-58.52754 -9.61776,-85.65156 -5.71232,-17.23898 -16.39571,-32.35206 -28.29303,-45.83302 -13.34759,-13.17474 -26.88966,-26.54931 -42.91338,-36.496625 -19.85301,-11.217994 -42.94999,-16.278817 -65.5572,-17.275919 -19.80011,0.165457 -39.92581,-0.852053 -59.05651,5.014953 -17.44378,6.707716 -34.33004,15.305246 -48.99698,26.984991 -16.94372,15.12841 -33.2137,31.76031 -44.221422,51.83023 -17.231792,33.51022 -18.486683,73.07844 -12.147454,109.57379 2.580128,18.39906 9.376571,36.17266 19.887066,51.54148 8.38946,13.20187 18.41867,25.38197 31.41009,34.48027 19.20294,15.82018 41.85889,27.27244 65.66578,34.67525 -4.48194,3.05059 -5.07594,9.08899 -3.1146,13.78866 -23.74307,-8.33183 -46.93564,-19.12044 -66.99356,-34.48275 -9.79677,-9.12091 -19.51008,-18.50687 -28.04377,-28.8656 -11.028504,-16.74574 -21.743314,-34.03182 -28.719972,-52.93837 -4.806016,-10.28951 -4.239982,-22.15944 -9.13157,-32.23193 -11.41081,-8.0993 -24.424114,-13.44921 -36.822394,-19.79327 10.775476,-5.32968 21.181964,-11.4845 30.669698,-18.88999 3.314892,-3.66216 11.10548,-4.3439 10.580274,-10.64197 3.845115,-30.43983 20.268499,-57.53987 38.604274,-81.45845 12.63405,-17.94068 29.58138,-32.675745 49.01921,-42.836882 13.97841,-8.673649 29.80208,-13.694996 45.79353,-17.142643 4.4291,-2.088066 9.59187,-1.187845 14.02558,-3.131884 6.73143,-11.480684 12.82363,-23.590711 19.79821,-35.045446 z m -3.63535,59.06144 c 2.84751,-0.002 5.681,0.0148 8.48742,0.0246 15.59529,-0.2149 31.0543,2.90783 45.85523,7.6409 11.90633,3.26837 22.95454,9.072545 32.51823,16.868705 10.84579,9.23167 21.85347,18.39367 31.44218,28.96679 9.52081,11.31322 19.02136,23.19534 24.08016,37.27403 9.18365,22.61965 16.03464,47.09372 13.23829,71.72224 -4.33528,29.86558 -15.5573,58.91774 -33.07598,83.54636 -7.51811,9.55881 -15.83323,18.56485 -24.59351,27.0146 -16.22817,12.73563 -35.80768,20.71424 -55.69511,25.76828 -12.20244,3.20819 -24.7602,4.82323 -37.38264,4.46707 -9.74889,1.09066 -19.71663,1.00882 -29.18396,-1.88555 -17.9422,-5.56623 -35.83379,-12.1631 -51.64021,-22.50066 -13.2756,-9.08505 -27.09932,-17.9791 -37.3456,-30.61047 -10.22883,-12.97104 -20.076715,-26.79672 -25.17843,-42.68387 -8.84866,-32.17882 -11.411502,-66.82198 -3.102253,-99.40566 4.890262,-23.06549 19.026443,-42.83469 35.203383,-59.46127 13.25553,-15.20573 30.09397,-26.89336 48.34791,-35.316915 17.43398,-10.48775 38.09234,-11.41447 58.02489,-11.42926 z m 25.2648,7.24355 c -3.16237,0.26187 -7.01446,-0.36837 -9.62022,1.8584 -3.05979,7.794275 -1.03551,16.542185 -1.77941,24.783535 -2.83996,-4.87818 -5.72095,-9.73354 -8.48989,-14.65246 -2.85088,-3.44297 -2.94177,-9.874825 -8.20606,-10.545705 -4.6842,-0.24246 -9.31772,-0.35338 -13.98363,-0.0272 -4.98406,0.43625 -5.23658,5.89479 -5.46165,9.748545 -0.43371,15.38931 1.25148,30.80106 0.83663,46.24519 0.35217,3.41557 -1.29417,9.70284 3.9167,10.01016 4.77377,-0.95868 10.09806,1.30238 14.46243,-1.31543 3.33517,-8.64758 0.3689,-18.34481 1.33024,-27.4095 4.2515,6.6075 6.72915,14.16287 10.93566,20.79776 1.76448,4.4144 5.94816,7.25124 10.71107,7.27563 4.62271,-0.44769 10.72927,2.62231 14.14651,-1.65356 0.86894,-18.82572 0.46018,-37.853 0.37514,-56.75635 1.0659,-5.346525 -4.54114,-8.515105 -9.17352,-8.359075 z m -2.3051,8.201125 c 1.44658,0.008 2.79205,0.68754 4.24987,0.6787 0.0488,16.49574 0.43973,33.00579 -0.36032,49.49058 -3.24919,-0.16728 -6.56478,-0.0502 -9.82013,-0.61946 -6.60672,-10.77573 -11.02412,-22.70427 -17.3623,-33.62636 -0.50386,-3.55208 -5.20222,-6.00677 -7.94199,-3.13435 -2.54484,10.78305 -0.4337,22.17465 -0.33564,33.26357 1.20696,3.36959 -2.43921,5.89884 -5.47648,4.73607 -0.0358,-16.52415 -1.14679,-33.0153 -0.90574,-49.54735 3.6559,0.27546 7.35555,0.38695 11.05906,0.45658 4.97954,9.96263 11.05905,19.33016 15.95802,29.33451 0.71126,3.00608 4.32058,7.4157 7.47553,4.62994 2.43877,-9.18067 1.44494,-18.97611 1.53756,-28.42135 0.53513,-2.38869 -1.45348,-7.08298 1.92256,-7.24108 z m 59.24902,50.57156 c -0.20426,-0.004 -0.40665,0.0306 -0.6096,0.0469 -22.19475,8.89797 -43.12217,20.68689 -65.0784,30.17117 -12.95749,5.46232 -25.10861,12.70859 -38.36736,17.44128 -7.93896,2.33768 -10.07023,11.25483 -12.84341,17.98424 -7.03775,17.04798 -15.96962,33.25358 -23.65815,50.01133 -6.76667,13.27631 -11.97061,27.31767 -18.9887,40.46762 -1.65576,3.06156 -3.05469,10.10381 2.19157,10.06692 11.21726,-3.55416 22.09718,-8.70061 32.77489,-13.79853 21.2404,-9.12234 41.78997,-19.77212 62.96827,-29.03836 6.36698,-3.13502 13.38125,-4.89621 19.54155,-8.4035 4.04808,-3.30951 3.0556,-9.4623 6.03175,-13.64798 12.56033,-31.07253 29.72999,-60.3939 38.2415,-93.00864 2.77991,-2.30809 1.89249,-8.17315 -2.20391,-8.29243 z m -6.47107,11.44407 c -3.90116,11.54612 -8.29381,22.92351 -13.0754,34.13229 -9.61927,20.76876 -19.24555,41.55198 -28.05611,62.68939 -9.15837,3.86725 -18.28588,7.85268 -27.32063,12.00676 -23.82678,11.50934 -47.82232,22.65268 -71.94189,33.54244 -5.91286,3.98738 -1.53512,-2.14003 -0.35539,-5.16797 12.86048,-31.13386 30.07889,-60.35229 41.60783,-92.0165 6.46682,-1.96536 12.57674,-4.62039 18.66047,-7.51749 25.94235,-11.84486 51.64285,-24.22005 77.46523,-36.32139 z m -70.03413,42.38524 c -0.58551,-0.0101 -1.16918,-0.008 -1.74733,0.008 -10.43304,-0.28486 -22.09245,4.48821 -27.2935,13.95155 -3.58319,7.56916 -2.27288,16.45949 -0.70831,24.32943 3.03916,14.36101 17.71122,25.43257 32.44172,22.67589 21.0607,-4.06885 30.9698,-31.98912 19.85744,-49.51526 -4.34555,-8.15274 -13.76727,-11.2899 -22.55002,-11.44901 z m 221.6575,3.4083 c 1.33398,0.014 2.6739,-0.0364 4.00308,0.10855 4.54058,-0.13565 5.61478,5.29507 4.00308,8.63302 -1.263,5.13328 -8.05272,3.54726 -11.41938,1.54743 -5.33742,-2.45527 -1.61063,-10.42227 3.41322,-10.28905 z m -223.16297,5.66157 c 4.52646,-0.0143 9.13206,0.20537 12.92239,2.91469 9.84238,6.59349 9.69308,21.06215 4.06478,30.36614 -4.53942,9.29777 -16.95157,12.66489 -25.93609,8.00122 -9.75553,-4.51181 -13.89463,-15.79136 -13.48757,-25.95831 -0.33761,-9.33127 9.62609,-15.09606 17.96943,-15.31634 1.45807,0.0269 2.95824,-0.003 4.46706,-0.008 z"
     id="rect4146"
     inkscape:connector-curvature="0"
     sodipodi:nodetypes="accccccccccccccccccccccccccccccccccccccccccccsaccccccccccccccccccccccccccccccccccccccccccccccccccccccccccccccccccccccccccccccccccccccccccccccccccccccccccccccccccccccccccccccccccccccccccccccccccccc" />
</svg>
